# xmcd
#
# Track frame offsets: 
#        150
#        19307
#        43597
#        65340
#        80220
#        107810
#        125665
#        139775
#        161655
#        181150
#        215847
#        231872
#        246617
#        262742
#        280410
#        300430
#        320080
#        337370
#
# Disc length: 4729 seconds
#
# Revision: 2
# Processed by: cddbd v1.4PL0 Copyright (c) Steve Scherf et al.
# Submitted via: ExactAudioCopy v0.90b2
#
DISCID=1b127712
DTITLE=Wynonna - Collection
DYEAR=1900
DGENRE=Country
TTITLE0=No One Else On Earth (Club Mix)
TTITLE1=Making My Way
TTITLE2=Somebody To Love You
TTITLE3=Change The World
TTITLE4=Heaven Help My Heart
TTITLE5=Healing (Duet With Michael English)
TTITLE6=Rock Bottom (Single Version)
TTITLE7=To Be Loved By You
TTITLE8=Father Sun
TTITLE9=Freebird
TTITLE10=Lets Make A Baby King
TTITLE11=Girls With Guitars
TTITLE12=Only Love
TTITLE13=I Saw The Light
TTITLE14=She Is His Only Need
TTITLE15=My Strongest Weakness
TTITLE16=Is It Over Yet (Single Version)
TTITLE17=Tell Me Why
EXTD=
EXTT0=
EXTT1=
EXTT2=
EXTT3=
EXTT4=
EXTT5=
EXTT6=
EXTT7=
EXTT8=
EXTT9=
EXTT10=
EXTT11=
EXTT12=
EXTT13=
EXTT14=
EXTT15=
EXTT16=
EXTT17=
PLAYORDER=
